<?xml version="1.0" standalone="no"?>
<!DOCTYPE svg PUBLIC "-//W3C//DTD SVG 20010904//EN"
 "http://www.w3.org/TR/2001/REC-SVG-20010904/DTD/svg10.dtd">
<svg version="1.0" xmlns="http://www.w3.org/2000/svg"
 width="934.000000pt" height="934.000000pt" viewBox="0 0 934.000000 934.000000"
 preserveAspectRatio="xMidYMid meet">
<metadata>
Created by potrace 1.14, written by Peter Selinger 2001-2017
</metadata>
<g transform="translate(0.000000,934.000000) scale(0.100000,-0.100000)"
fill="#000000" stroke="none">
<path d="M5417 7513 c-1 -1 -69 -4 -152 -8 -82 -3 -170 -8 -195 -10 -25 -2
-85 -6 -135 -10 -49 -3 -111 -8 -138 -11 -26 -3 -71 -7 -100 -9 -67 -5 -165
-15 -197 -20 -14 -2 -54 -7 -90 -10 -36 -3 -76 -8 -90 -10 -14 -2 -45 -6 -70
-10 -25 -3 -56 -8 -70 -10 -14 -3 -45 -7 -70 -10 -25 -3 -54 -7 -65 -9 -11 -2
-45 -7 -75 -12 -30 -4 -57 -8 -60 -9 -3 0 -27 -4 -53 -9 -27 -4 -57 -9 -67
-11 -33 -6 -95 -17 -117 -20 -12 -2 -34 -6 -50 -9 -15 -4 -39 -9 -53 -11 -14
-3 -47 -10 -75 -16 -27 -6 -61 -13 -75 -15 -120 -24 -489 -115 -610 -151 -30
-9 -60 -18 -67 -19 -7 -1 -34 -9 -60 -17 -26 -9 -100 -32 -163 -52 -63 -20
-122 -39 -130 -42 -8 -3 -19 -7 -25 -9 -53 -13 -399 -148 -503 -195 -35 -16
-65 -29 -67 -29 -2 0 -69 -31 -147 -68 -180 -87 -387 -201 -541 -300 -65 -42
-126 -81 -136 -87 -9 -5 -18 -13 -21 -16 -3 -3 -43 -34 -90 -69 -47 -35 -90
-69 -96 -75 -6 -5 -31 -26 -55 -45 -50 -40 -258 -247 -307 -304 -89 -106 -209
-289 -259 -396 -106 -229 -145 -403 -139 -620 7 -210 53 -348 181 -541 71
-106 228 -273 345 -366 67 -53 283 -203 293 -203 2 0 42 -22 88 -48 95 -54
236 -124 355 -175 76 -33 347 -137 369 -141 6 -1 51 -15 100 -31 50 -16 95
-29 100 -30 6 -2 42 -12 80 -23 70 -20 227 -60 266 -67 11 -2 28 -6 37 -9 9
-3 28 -7 42 -10 14 -2 70 -13 125 -24 55 -12 116 -23 135 -26 19 -3 46 -8 60
-11 13 -2 40 -7 60 -10 20 -3 47 -7 60 -10 13 -2 46 -7 74 -10 28 -3 62 -7 76
-10 61 -11 151 -21 365 -39 319 -28 773 -38 1020 -23 177 11 247 17 290 22 22
3 56 8 75 10 165 21 171 22 320 49 79 14 197 40 280 62 52 14 102 27 110 29
28 6 215 66 235 75 11 5 58 24 105 41 95 36 343 157 348 171 2 4 8 8 13 8 11
0 147 90 187 124 97 81 145 128 209 206 46 55 113 172 113 195 0 8 5 15 12 15
6 0 9 2 6 6 -3 3 1 26 9 52 21 66 27 188 14 253 -46 218 -278 425 -635 564
-92 36 -225 78 -286 90 -8 2 -15 4 -15 5 0 1 -7 3 -15 5 -14 2 -123 25 -145
30 -5 1 -31 5 -56 9 l-46 8 1 67 c1 87 -34 161 -108 228 -69 64 -220 143 -301
159 -11 2 -48 10 -82 18 -143 32 -366 37 -493 11 -14 -3 -40 -8 -59 -11 -84
-14 -269 -86 -308 -119 -6 -5 -26 -21 -44 -35 -96 -73 -134 -143 -134 -245 1
-136 88 -243 266 -327 63 -30 181 -68 210 -68 45 0 13 -16 -64 -32 -103 -22
-99 -21 -177 -51 -114 -43 -189 -91 -256 -165 l-41 -45 -74 22 c-94 28 -218
77 -288 113 -74 39 -151 90 -151 100 0 4 -5 8 -12 8 -18 0 -97 91 -126 145
-21 41 -26 62 -25 120 2 74 3 84 21 128 7 16 12 31 12 34 0 3 20 36 45 73 159
239 546 442 1070 561 50 11 101 22 115 24 14 2 25 4 25 5 0 2 35 8 85 15 40 5
73 10 132 21 9 1 45 6 80 9 35 4 81 8 103 10 234 24 760 24 1015 0 19 -1 73
-6 119 -10 46 -4 91 -8 100 -10 9 -2 48 -6 86 -9 39 -4 77 -9 85 -11 8 -2 40
-7 70 -10 85 -10 386 -65 455 -83 22 -6 52 -13 66 -16 36 -6 296 -75 322 -86
19 -7 162 -53 177 -56 3 0 12 -4 20 -7 8 -3 44 -17 80 -30 197 -73 451 -202
610 -311 257 -175 430 -396 476 -603 22 -103 5 -290 -38 -418 -39 -118 -134
-290 -204 -372 -10 -12 -27 -32 -37 -45 -53 -68 -211 -218 -322 -305 -50 -39
-252 -178 -290 -199 -11 -6 -49 -28 -85 -49 -134 -77 -349 -181 -520 -252
-124 -52 -359 -139 -400 -148 -8 -2 -33 -10 -55 -18 -22 -9 -74 -25 -115 -37
-41 -12 -86 -26 -100 -31 -28 -10 -331 -88 -370 -95 -14 -3 -38 -9 -55 -14
-26 -7 -71 -17 -163 -35 -13 -2 -33 -7 -44 -11 -11 -3 -30 -7 -41 -9 -12 -2
-89 -15 -172 -30 -82 -15 -163 -29 -180 -30 -16 -2 -30 -4 -30 -5 0 -1 -11 -3
-25 -5 -24 -2 -85 -11 -145 -21 -66 -11 -83 -13 -155 -19 -41 -4 -77 -8 -80
-10 -3 -2 -36 -6 -75 -9 -38 -4 -86 -9 -105 -11 -19 -3 -69 -7 -110 -10 -41
-3 -102 -7 -135 -10 -185 -14 -452 -26 -655 -29 l-165 -2 -3 -44 c-2 -24 2
-46 8 -50 17 -10 484 0 700 15 150 11 199 15 265 21 39 4 89 7 112 8 24 1 43
3 43 6 0 3 12 5 28 5 30 1 159 14 188 19 11 2 44 7 74 10 113 13 199 26 220
31 8 2 35 7 60 10 41 5 146 23 240 41 19 3 42 7 50 9 14 2 64 11 115 22 11 2
40 8 65 14 25 5 54 11 65 13 11 2 40 9 65 16 25 7 52 14 60 15 234 49 810 224
922 281 15 8 31 15 35 15 61 8 660 295 671 322 2 4 9 7 16 7 6 0 21 7 31 15
11 8 72 49 135 91 296 196 526 426 661 659 27 47 49 88 49 91 0 3 11 29 24 57
30 66 54 151 71 247 15 85 13 271 -4 313 -6 15 -8 27 -6 27 7 0 -32 96 -66
166 -101 202 -327 409 -639 584 -78 44 -369 183 -378 180 -1 0 -17 6 -36 14
-138 58 -542 177 -715 211 -9 2 -51 10 -93 19 -42 9 -93 19 -114 22 -20 3 -46
8 -58 10 -11 2 -37 7 -56 10 -19 3 -47 7 -62 10 -68 10 -86 13 -128 18 -25 3
-67 8 -95 12 -81 10 -167 18 -295 29 -297 24 -933 24 -1057 1 -10 -2 -47 -7
-83 -10 -36 -4 -76 -9 -90 -11 -14 -3 -43 -7 -65 -10 -22 -2 -65 -9 -95 -15
-30 -6 -71 -13 -90 -16 -74 -11 -360 -85 -455 -118 -147 -50 -198 -72 -320
-133 -365 -182 -562 -409 -570 -657 -3 -99 23 -176 82 -246 27 -33 27 -33 3
-20 -40 21 -137 119 -169 169 -84 133 -69 308 42 471 40 59 177 200 194 200 7
0 13 4 13 9 0 10 187 137 217 148 10 4 20 9 23 12 4 6 112 56 235 112 75 33
115 48 115 42 0 -3 7 0 15 7 8 7 15 10 15 6 0 -4 12 0 28 7 25 13 210 71 260
82 44 10 58 13 102 25 25 7 54 14 65 16 11 2 31 6 45 9 31 7 59 12 130 25 30
6 64 12 75 14 22 4 146 22 210 31 38 4 81 9 193 19 272 26 817 26 1142 1 94
-7 214 -17 240 -20 107 -11 154 -17 169 -20 9 -2 44 -6 76 -10 33 -4 74 -9 90
-12 17 -2 45 -6 62 -9 28 -3 105 -16 229 -38 17 -3 66 -13 110 -22 43 -8 88
-17 99 -19 44 -7 317 -76 415 -105 58 -17 112 -33 120 -35 23 -5 202 -65 225
-75 11 -4 74 -29 140 -55 325 -127 621 -297 830 -475 74 -63 215 -213 215
-228 0 -6 4 -12 8 -14 26 -10 119 -184 147 -273 50 -163 40 -383 -27 -580 -11
-33 -25 -66 -31 -72 -5 -7 -7 -13 -3 -13 12 0 -137 -265 -164 -290 -3 -3 -27
-34 -54 -70 -44 -57 -249 -268 -302 -310 -10 -8 -48 -39 -84 -68 -80 -65 -72
-59 -150 -112 -36 -25 -66 -48 -68 -52 -2 -5 -8 -8 -14 -8 -5 0 -24 -10 -41
-23 -18 -12 -41 -27 -52 -34 -274 -166 -543 -300 -835 -415 -114 -46 -138 -54
-153 -57 -4 0 -20 -7 -35 -14 -81 -41 -723 -239 -847 -262 -36 -6 -65 -14 -73
-18 -4 -3 -25 -8 -47 -11 -22 -4 -53 -11 -70 -16 -16 -5 -77 -19 -135 -30 -58
-12 -114 -24 -125 -26 -18 -4 -119 -24 -200 -39 -16 -3 -43 -8 -60 -10 -16 -3
-41 -7 -55 -10 -14 -3 -41 -8 -60 -11 -19 -2 -46 -7 -60 -9 -40 -7 -75 -12
-235 -34 -215 -30 -226 -31 -460 -57 -16 -2 -59 -6 -95 -9 -36 -3 -87 -7 -115
-10 -71 -6 -210 -16 -280 -20 -33 -2 -114 -6 -180 -10 -140 -7 -373 -14 -531
-14 l-111 -1 -2 -51 -1 -52 313 7 c171 4 330 9 352 11 22 2 96 6 165 10 69 3
145 8 170 10 25 2 79 7 120 10 41 3 93 8 115 11 22 2 65 7 95 9 73 5 145 13
200 21 25 4 54 8 65 9 11 1 43 5 70 8 28 4 68 9 90 12 52 7 93 12 130 19 17 3
50 8 75 11 25 4 124 20 220 37 96 17 184 32 195 33 11 2 20 4 20 5 0 2 25 8
70 15 22 3 48 8 57 11 10 3 30 7 45 10 42 8 226 51 338 79 55 15 111 28 124
31 47 10 400 114 521 154 291 97 811 311 920 380 8 5 42 23 75 40 219 112 574
351 720 485 264 243 420 446 518 675 117 274 136 528 59 776 -22 72 -110 225
-181 318 -44 58 -227 230 -306 289 -49 37 -94 70 -100 74 -25 20 -147 93 -155
93 -4 0 -10 3 -12 8 -9 20 -322 172 -518 251 -72 29 -385 137 -405 140 -5 1
-39 10 -75 21 -132 39 -449 113 -580 136 -14 2 -36 7 -50 9 -14 3 -37 8 -52
10 -16 3 -40 7 -55 10 -16 3 -44 8 -63 10 -19 3 -64 10 -100 15 -36 5 -85 12
-110 15 -25 3 -56 7 -70 9 -14 3 -55 7 -92 11 -37 3 -77 8 -90 10 -22 3 -141
13 -238 20 -371 26 -900 26 -1155 1 -16 -2 -61 -6 -100 -10 -38 -4 -81 -9 -95
-11 -14 -2 -47 -7 -75 -10 -63 -7 -168 -24 -195 -30 -17 -4 -99 -18 -117 -20
-11 -2 -30 -6 -41 -9 -20 -7 -45 -13 -92 -22 -14 -3 -59 -14 -100 -25 -41 -11
-82 -22 -90 -23 -33 -5 -301 -97 -357 -122 -17 -8 -33 -14 -36 -14 -3 0 -45
-18 -92 -40 -47 -22 -90 -40 -96 -40 -5 0 -9 -4 -9 -8 0 -5 -17 -16 -39 -25
-44 -20 -231 -142 -276 -182 -76 -66 -161 -155 -197 -208 -44 -65 -95 -168
-102 -207 -2 -14 -5 -25 -6 -25 -6 0 -12 -53 -13 -120 -1 -131 51 -243 164
-355 53 -52 189 -150 208 -150 5 0 11 -4 13 -8 3 -9 134 -73 211 -103 55 -22
179 -66 187 -66 3 -1 25 -6 50 -13 62 -17 81 -21 112 -27 24 -5 27 -10 31 -57
6 -68 8 -74 40 -128 61 -104 250 -225 397 -253 13 -2 37 -9 54 -14 17 -5 51
-12 76 -16 25 -3 59 -8 75 -11 47 -7 244 -7 310 0 56 6 72 8 133 21 75 16 138
34 171 47 14 6 28 12 31 13 3 1 30 13 60 28 80 39 165 110 205 170 146 221
-26 463 -399 560 -90 23 -104 31 -60 35 125 10 334 99 426 182 43 38 62 49 80
46 13 -3 37 -8 53 -10 17 -3 41 -7 55 -11 14 -3 36 -7 50 -10 14 -3 40 -9 58
-14 17 -5 32 -8 32 -5 0 2 13 -2 30 -11 16 -8 33 -14 37 -13 8 2 111 -30 128
-41 6 -3 12 -6 15 -7 7 -1 49 -19 105 -44 82 -38 209 -126 257 -179 64 -70 92
-132 93 -206 4 -208 -181 -417 -521 -589 -39 -20 -74 -36 -77 -36 -4 0 -31
-11 -60 -25 -77 -35 -284 -102 -407 -131 -133 -32 -124 -31 -260 -55 -163 -29
-158 -28 -230 -35 -36 -3 -67 -7 -70 -9 -5 -3 -123 -12 -270 -21 -79 -5 -491
-4 -580 1 -181 10 -421 29 -510 40 -19 3 -60 7 -90 11 -30 3 -57 7 -60 9 -3 2
-30 6 -60 10 -30 3 -62 8 -70 10 -8 3 -33 7 -55 10 -22 3 -51 7 -65 10 -14 3
-52 10 -85 16 -33 6 -107 22 -165 35 -58 14 -114 27 -125 30 -151 30 -521 154
-705 236 -444 198 -761 461 -865 717 -68 166 -68 349 0 550 95 282 351 578
712 822 40 27 76 49 82 49 5 0 11 4 13 8 13 32 487 271 708 357 80 31 154 60
165 65 58 26 554 181 627 195 9 2 90 22 180 44 89 22 177 42 193 44 17 3 50
10 75 16 25 5 61 12 80 16 19 3 46 8 60 10 102 21 131 26 355 61 17 2 41 6 55
9 14 2 50 7 80 10 30 3 66 8 80 10 14 2 50 7 80 9 30 3 64 7 75 10 30 6 158
17 334 30 51 4 110 9 130 11 90 9 473 23 659 24 l92 1 0 51 0 51 -257 -6
c-276 -7 -357 -10 -498 -20 -138 -10 -305 -24 -350 -30 -16 -2 -61 -7 -100
-11 -38 -3 -81 -8 -95 -10 -14 -2 -52 -6 -85 -10 -33 -3 -71 -8 -85 -10 -14
-2 -38 -6 -55 -9 -16 -2 -50 -8 -75 -12 -25 -4 -58 -8 -75 -10 -16 -1 -30 -3
-30 -4 0 -1 -9 -3 -20 -4 -30 -5 -98 -16 -122 -20 -11 -3 -36 -7 -54 -10 -19
-3 -45 -8 -59 -11 -14 -3 -38 -8 -55 -11 -74 -13 -188 -37 -283 -60 -56 -13
-113 -26 -125 -28 -12 -3 -22 -5 -22 -6 0 -1 -8 -3 -17 -5 -115 -22 -638 -182
-753 -230 -16 -7 -57 -23 -90 -35 -33 -13 -78 -31 -100 -41 -22 -9 -69 -29
-105 -44 -104 -43 -296 -138 -411 -202 -101 -57 -292 -176 -315 -198 -6 -5
-22 -17 -34 -25 -127 -85 -361 -307 -457 -435 -174 -232 -256 -454 -257 -695
0 -149 22 -242 85 -360 121 -224 361 -442 659 -596 41 -22 77 -42 80 -45 14
-16 436 -189 500 -205 8 -2 67 -20 130 -40 63 -19 122 -37 130 -39 8 -2 60
-15 115 -29 55 -14 136 -32 180 -41 44 -10 89 -19 100 -21 11 -2 36 -7 55 -10
19 -3 44 -8 54 -11 11 -3 36 -7 55 -9 20 -2 45 -6 57 -8 11 -3 40 -8 65 -11
24 -3 53 -7 64 -9 19 -3 76 -11 168 -22 20 -2 54 -6 75 -8 38 -5 154 -15 251
-22 287 -20 725 -20 936 0 22 3 71 7 110 11 38 4 76 8 85 10 8 1 40 6 70 10
30 4 64 9 75 11 10 2 37 6 60 10 60 9 331 71 405 93 288 84 562 214 724 341
49 38 167 161 191 199 74 118 93 171 100 284 3 51 -2 84 -31 177 -6 22 -4 21
22 -10 16 -19 37 -44 47 -55 66 -73 101 -222 77 -326 -13 -56 -58 -180 -69
-189 -3 -3 -19 -25 -35 -50 -27 -41 -158 -177 -216 -225 -184 -150 -558 -324
-885 -410 -33 -9 -67 -18 -75 -20 -43 -11 -231 -54 -270 -61 -25 -4 -47 -8
-50 -9 -3 -1 -32 -5 -65 -10 -33 -5 -62 -9 -65 -10 -23 -5 -94 -16 -135 -20
-203 -21 -227 -23 -370 -31 -217 -12 -690 -6 -865 11 -19 2 -71 6 -115 9 -88
7 -158 13 -222 21 -24 3 -64 7 -90 10 -27 3 -64 8 -83 12 -19 3 -48 6 -65 8
-27 3 -48 6 -125 20 -14 2 -41 7 -60 9 -19 3 -46 8 -60 11 -14 3 -40 7 -59 10
-18 2 -41 7 -50 9 -9 3 -32 8 -51 11 -19 3 -63 12 -96 20 -34 8 -73 16 -85 19
-111 20 -616 169 -694 205 -11 5 -51 21 -90 36 -85 33 -107 42 -265 117 -374
178 -671 399 -848 633 -66 87 -155 267 -178 360 -26 100 -23 405 4 449 3 5 6
19 7 30 5 43 58 184 105 281 85 173 197 328 352 485 177 179 306 284 528 429
69 44 130 86 137 91 7 6 14 10 16 10 3 0 49 25 103 56 279 158 591 299 941
423 147 52 225 78 448 148 28 8 59 17 70 18 11 1 20 3 20 4 0 2 7 4 15 6 8 1
56 14 105 28 97 27 436 108 472 112 11 2 30 6 41 9 11 4 33 8 48 11 16 2 63
10 104 19 127 26 244 47 275 51 43 5 106 14 135 20 14 3 43 7 65 10 22 2 51 7
65 9 14 3 50 8 80 12 30 3 69 8 85 10 17 2 53 6 80 9 28 3 61 8 75 10 14 2 59
7 100 10 41 3 89 8 105 11 49 6 199 18 395 29 58 4 130 8 160 10 30 2 178 6
329 9 151 3 276 8 279 10 2 3 5 26 6 51 l2 46 -229 -3 c-126 -2 -229 -4 -230
-5z"/>
</g>
</svg>
