<svg xmlns="http://www.w3.org/2000/svg" viewBox="0 0 467 285"><defs><style>.cls-1{fill:none;}.cls-1,.cls-2{stroke:#000;stroke-miterlimit:10;stroke-width:5px;}.cls-2{fill:#00bdff;}</style></defs><title>webElement 3ontheinteractionofbinaries</title><g id="Ebene_2" data-name="Ebene 2"><g id="Ebene_1-2" data-name="Ebene 1"><path class="cls-1" d="M225.27,163.5c-40.4,0-73.15-14.3-73.15-31.93,0-26.46,49.12-47.91,109.72-47.91,90.9,0,164.59,32.17,164.59,71.86,0,59.53-110.53,107.78-246.88,107.78"/><path class="cls-1" d="M226.69,164.52c-47.76,0-86.48-16.9-86.48-37.76,0-31.27,58.08-56.63,129.72-56.63,107.46,0,194.57,38,194.57,85,0,70.37-130.67,127.42-291.86,127.42"/><path class="cls-1" d="M241.73,126.78c40.4,0,73.15,14.3,73.15,31.94,0,26.45-49.12,47.9-109.72,47.9-90.9,0-164.59-32.17-164.59-71.85C40.57,75.24,151.1,27,287.45,27"/><path class="cls-1" d="M239.75,126.25c47.65,0,86.27,17.73,86.27,39.6,0,32.81-57.94,59.4-129.41,59.4-107.2,0-194.11-39.89-194.11-89.1C2.5,62.34,132.86,2.5,293.67,2.5"/><ellipse class="cls-2" cx="229.92" cy="122.23" rx="35.93" ry="18.84"/><ellipse class="cls-2" cx="226.68" cy="164.38" rx="37.72" ry="19.78"/></g></g></svg>